HIERARCHY
ROOT Hips
{
	OFFSET 0.00000 0.00000 0.00000
	CHANNELS 6 Xposition Yposition Zposition Yrotation Zrotation Xrotation 
	JOINT Lumbar
	{
		OFFSET 0 0 0
		CHANNELS 3 Zrotation Xrotation Yrotation
		JOINT Neck
		{
			OFFSET 0.00 0.2701 0.00
			CHANNELS 3 Zrotation Xrotation Yrotation
			End Site
			{
				OFFSET 0.00 0.1379 0.00
			}
		}
		JOINT RightShoulder
		{
			OFFSET 0.0119 0.2289 0.1181
			CHANNELS 3 Zrotation Xrotation Yrotation
			JOINT RightElbow
			{
				OFFSET 0.00 -0.1475 0.00
				CHANNELS 2 Zrotation Yrotation
				JOINT RightWrist
				{
					OFFSET 0.00 -0.1605 0.00
					CHANNELS 2 Zrotation Xrotation
					End Site
					{
						OFFSET 0.0040 -0.1068 0.0006
					}
				}
			}
		}
		JOINT LeftShoulder
		{
			OFFSET 0.0119 0.2289 -0.1181
			CHANNELS 3 Zrotation Xrotation Yrotation
			JOINT LeftElbow
			{
				OFFSET 0.00 -0.1475 0.00
				CHANNELS 2 Zrotation Yrotation
				JOINT LeftWrist
				{
					OFFSET 0.00 -0.1605 0.00
					CHANNELS 2 Zrotation Xrotation
					End Site
					{
						OFFSET 0.0040 -0.1068 -0.0006
					}
				}
			}
		}
	}
	JOINT RightHip
	{
		OFFSET 0.0316 -0.0424 0.0458
		CHANNELS 3 Zrotation Xrotation Yrotation
		JOINT RightKnee
		{
			OFFSET 0.00 -0.2438 0.00
			CHANNELS 1 Zrotation
			JOINT RightAnkle
			{
				OFFSET 0.00 -0.2449 0.00
				CHANNELS 3 Zrotation Xrotation Yrotation
				End Site
				{
					OFFSET 0.1237 -0.0542 0.0051
				}
			}
		}
	}
	JOINT LeftHip
	{
		OFFSET 0.0316 -0.0424 -0.0458
		CHANNELS 3 Zrotation Xrotation Yrotation
		JOINT LeftKnee
		{
			OFFSET 0.00 -0.2438 0.00
			CHANNELS 1 Zrotation
			JOINT LeftAnkle
			{
				OFFSET 0.00 -0.2449 0.00
				CHANNELS 3 Zrotation Xrotation Yrotation
				End Site
				{
					OFFSET 0.1237 -0.0542 -0.0051
				}
			}
		}
	}
}
MOTION
Frames: 25
Frame Time: 0.02
-0.92431 -0.0101 -0.26662 154.8806 -33.61892 -2.84388 37.7345 2.79552 -11.93731 -22.93252 6.59342 -0.83075 -2.76596 -19.38326 6.62964 101.96206 80.63467 10.21545 -3.87784 -12.85437 21.53902 -16.75599 50.78326 -91.46057 8.47719 0.46865 27.15055 -9.0118 1.97147 -6.43505 -8.58375 -3.28749 -2.42509 11.25523 5.09776 -2.33884 0.53516 -18.55958 39.28765 21.31642
-0.92394 -0.01042 -0.26818 154.79382 -33.62061 -2.71823 37.5263 2.78869 -11.56819 -22.93369 7.21894 -0.83075 -2.36113 -19.29941 6.99536 100.66264 79.92448 10.8317 -4.02997 -13.45739 21.81341 -16.50195 50.94922 -91.85235 8.59652 0.38607 28.30095 -8.8422 2.05325 -8.65501 -8.70259 -3.30804 -2.44733 11.19906 5.07854 -2.27772 0.53581 -18.54062 39.23633 21.30936
-0.92348 -0.01083 -0.27006 154.67877 -33.62108 -2.56918 37.26172 2.76314 -11.11038 -22.90133 8.03163 -0.83075 -1.68965 -19.17889 7.44034 98.886 79.06946 11.67682 -4.18156 -14.1794 22.18342 -16.3016 51.19436 -92.36421 8.75909 0.27911 29.66674 -8.63491 2.11344 -11.2874 -8.4213 -3.44454 -2.51866 11.12899 5.05078 -2.1741 0.53636 -18.51303 39.17658 21.30101
-0.92308 -0.0112 -0.27184 154.57724 -33.63488 -2.43392 37.03467 2.74666 -10.6937 -22.88086 8.78703 -0.83075 -1.08096 -19.08941 7.91576 97.19748 78.43388 12.36655 -4.29622 -14.86093 22.50309 -16.0579 51.39812 -92.82191 8.88853 0.17855 30.9257 -8.44274 2.12474 -13.69096 -8.33356 -3.52944 -2.5683 11.07656 5.03247 -2.08809 0.53695 -18.49674 39.12051 21.29322
-0.9226 -0.01158 -0.27345 154.46975 -33.59715 -2.28476 36.75859 2.72594 -10.27127 -22.87252 9.42896 -0.83075 -0.70232 -18.93946 8.12255 96.0333 77.17214 13.26408 -4.56931 -15.49043 22.85288 -15.89095 51.62347 -93.27637 9.07261 0.09698 32.23391 -8.26031 2.38421 -16.28433 -8.20286 -3.62121 -2.6215 10.9783 4.98905 -2.00593 0.53761 -18.44465 39.06176 21.28507
-0.92227 -0.01194 -0.27549 154.3725 -33.66343 -2.15942 36.5683 2.71219 -9.84141 -22.83252 10.34979 -0.83075 0.19657 -18.90845 8.89346 93.68384 77.15169 13.78939 -4.5119 -16.25367 23.16243 -15.58018 51.82393 -93.76932 9.15727 -0.02905 33.47686 -8.04675 2.13181 -18.56311 -8.06412 -3.72347 -2.6775 10.96969 4.99815 -1.90985 0.53806 -18.46968 39.00826 21.27758
-0.92233 -0.01224 -0.27861 154.26947 -34.04322 -2.10258 36.65941 2.69919 -9.40422 -22.7049 11.99899 -0.83075 2.66022 -19.19247 11.32148 88.02285 80.84309 13.19776 -3.54254 -17.36884 23.3348 -14.83385 51.92709 -94.30302 8.91492 -0.27894 34.60349 -7.77429 0.34436 -20.01323 -8.00073 -3.81444 -2.72258 11.23404 5.13389 -1.74914 0.53814 -18.6749 38.96551 21.27146
-0.92255 -0.0125 -0.28215 154.18544 -34.52286 -2.07079 36.83336 2.69801 -8.96518 -22.5493 13.91997 -0.83075 5.60002 -19.60093 14.29173 81.21772 85.74351 12.23149 -2.24247 -18.61255 23.4636 -13.94569 52.00494 -94.87536 8.5775 -0.57117 35.63546 -7.46885 -1.93504 -21.10621 -7.94203 -3.91835 -2.77222 11.58517 5.32625 -1.58228 0.53797 -18.96449 38.92908 21.26596
-0.92271 -0.01277 -0.2855 154.11927 -34.93976 -2.02999 36.94938 2.70668 -8.53176 -22.41086 15.71497 -0.83075 8.19823 -19.96728 16.93628 75.03564 89.92588 11.45825 -1.09037 -19.78797 23.61398 -13.13927 52.09948 -95.45663 8.31229 -0.83966 36.63383 -7.16649 -3.90834 -22.26961 -7.88069 -4.01448 -2.81903 11.88192 5.50647 -1.44279 0.53784 -19.23889 38.89498 21.26118
-0.92282 -0.0131 -0.28884 153.93958 -35.42999 -1.97973 37.14875 2.65095 -8.07178 -22.2483 17.53199 -0.83075 11.34395 -20.27301 19.92016 68.391 94.81021 10.59334 0.06107 -21.0057 23.76047 -12.26212 52.17185 -95.94041 7.93079 -1.12893 37.96192 -6.91182 -6.23254 -23.83415 -7.80831 -4.09798 -2.85771 12.24053 5.63034 -1.19985 0.53812 -19.41629 38.84174 21.25343
-0.92307 -0.01329 -0.29231 154.00206 -35.79112 -1.9537 37.19531 2.73174 -7.67194 -22.13499 19.35896 -0.83075 13.44679 -20.733 22.32268 62.45763 98.5275 9.83168 1.28091 -22.16876 23.90313 -11.49746 52.28713 -96.62215 7.76258 -1.38351 38.57958 -6.55204 -7.94005 -24.47452 -7.76443 -4.24056 -2.93025 12.49198 5.88348 -1.16925 0.53736 -19.81451 38.826 21.25036
-0.92369 -0.01311 -0.29605 154.72034 -35.77193 -2.00315 36.7967 3.19207 -7.40383 -22.11992 21.19764 -0.83075 12.6539 -21.60462 23.00538 58.65993 98.67186 9.41051 2.70749 -23.1092 24.04727 -11.0823 52.49229 -97.94989 8.25657 -1.54137 37.24473 -5.89777 -7.84642 -22.63697 -7.80719 -4.26398 -2.94779 12.41852 6.49319 -1.73154 0.53457 -20.80742 38.93338 21.26739
-0.92446 -0.01278 -0.29989 155.68231 -35.61928 -2.07337 36.24241 3.7882 -7.203 -22.16376 23.02505 -0.83076 10.77449 -22.6233 23.08004 55.6419 97.6091 9.11229 4.17303 -23.9964 24.18773 -10.78452 52.74598 -99.45498 8.95938 -1.66087 35.20097 -5.14194 -7.11226 -19.8843 -7.87917 -4.39049 -3.02257 12.23561 7.22799 -2.49702 0.53049 -22.01405 39.06526 21.28281
-0.92514 -0.01251 -0.30367 156.53964 -35.52734 -2.12472 35.76146 4.31898 -6.99497 -22.21017 24.82527 -0.83076 9.32583 -23.56564 23.42129 52.33825 97.13779 8.77985 5.55602 -24.93455 24.32921 -10.42963 53.0019 -100.80642 9.53302 -1.79176 33.48823 -4.44013 -6.6551 -17.55445 -7.93331 -4.66166 -3.17248 12.10818 7.89748 -3.17902 0.5266 -23.12507 39.18373 21.30045
-0.9259 -0.01228 -0.30754 157.37622 -35.43859 -2.21727 35.27191 4.86653 -6.68919 -22.13215 26.77759 -0.83076 8.16187 -24.55682 23.82443 48.69728 96.53504 8.34118 7.22448 -25.76705 24.47438 -10.08445 53.16106 -102.46613 10.2462 -1.95007 31.72977 -3.70148 -6.26931 -15.17404 -8.005 -4.15532 -2.91165 11.96012 8.60709 -3.86432 0.52478 -24.2515 39.3495 21.33211
-0.92653 -0.01194 -0.31124 158.30815 -35.31027 -2.22795 34.76288 5.40993 -6.60168 -22.32709 28.39927 -0.83076 6.13837 -25.47405 23.94491 45.9678 95.89435 8.16019 8.30309 -26.80182 24.60855 -9.75034 53.52532 -103.52731 10.72192 -2.04109 29.90588 -3.01894 -5.58302 -12.69762 -8.04909 -5.25447 -3.49972 11.82715 9.25906 -4.53974 0.51784 -25.37182 39.3755 21.30875
-0.92672 -0.01135 -0.31445 159.48925 -35.10497 -2.01331 34.23269 5.9199 -7.11232 -23.26575 29.1717 -0.83076 2.02489 -26.19748 23.44989 45.49765 95.51792 8.6407 7.74404 -28.43587 24.73815 -9.40534 54.51407 -102.87498 10.47083 -1.95974 28.0201 -2.49071 -4.16162 -10.0823 -7.9929 -11.09277 -6.59223 11.76928 9.74658 -5.59363 0.50156 -26.63029 39.42707 21.35981
-0.92678 -0.01066 -0.31747 160.74834 -34.8646 -1.71447 33.68924 6.41878 -7.83812 -24.47579 29.59763 -0.83077 -2.92033 -26.83181 22.68563 45.93674 95.1252 9.38089 6.58913 -30.2687 24.85182 -9.07056 55.69375 -101.61744 9.97771 -1.81108 26.10422 -2.02758 -2.46762 -7.42152 -7.91093 -18.48284 -10.50526 11.72908 10.1665 -6.55669 0.47944 -27.83958 39.27012 21.31928
-0.92692 -0.01002 -0.32056 161.94299 -34.63928 -1.45004 33.1546 6.91536 -8.45763 -25.55963 30.14253 -0.83077 -7.50068 -27.47634 22.03124 46.00852 94.68547 10.0184 5.70383 -31.99265 24.95736 -8.74014 56.7413 -100.64783 9.60907 -1.69026 24.23766 -1.55131 -0.93842 -4.84789 -7.85208 -24.94344 -13.92732 11.67549 10.60085 -7.24855 0.45693 -28.93061 38.92086 21.16502
-0.92698 -0.00936 -0.32373 163.27252 -34.41072 -1.20206 32.60136 7.44794 -9.11533 -26.6601 30.85535 -0.83077 -12.06944 -28.25534 21.40867 45.91072 94.43389 10.59929 4.82149 -33.79629 25.1299 -8.37557 57.98552 -99.62905 9.18672 -1.57946 22.19332 -1.00131 0.77978 -1.96306 -7.7468 -32.3484 -17.84676 11.63917 11.10951 -9.221 0.44682 -30.60857 39.73935 21.64229
-0.92716 -0.00871 -0.32669 164.3315 -34.18531 -0.90025 32.08759 7.9008 -9.74381 -27.78649 31.12921 -0.83077 -16.83797 -28.72944 20.66377 46.37486 93.80243 11.35315 3.79546 -35.47785 25.1563 -8.08325 58.86043 -98.56785 8.81575 -1.43264 20.52454 -0.62259 2.16802 0.27452 -7.73084 -38.16111 -20.92824 11.57451 11.44426 -8.5593 0.41002 -31.06743 38.13231 20.81292
-0.92768 -0.00808 -0.32913 164.66367 -33.95135 -0.46488 31.66979 8.13813 -10.23713 -28.94449 30.33467 -0.83077 -22.0139 -28.39827 19.65189 48.14152 92.12678 12.56394 2.47829 -36.80665 24.80854 -7.9867 58.70664 -97.53064 8.64875 -1.20088 19.87685 -0.69336 2.51496 0.6897 -7.97554 -39.13088 -21.46057 11.40983 11.32735 -0.14853 0.29673 -28.01589 29.38824 16.13384
-0.9283 -0.00746 -0.33135 164.71128 -33.7269 0.02033 31.29531 8.29447 -10.69312 -30.11375 29.09912 -0.83077 -27.34315 -27.76073 18.53066 50.44225 90.07525 13.93066 1.04408 -37.99916 24.31029 -7.9628 58.16794 -96.47506 8.541 -0.93639 19.616 -0.93598 2.5298 0.45151 -8.30949 -38.4564 -21.12722 11.21957 11.03521 10.82028 0.15761 -23.76682 18.29934 10.19094
-0.92887 -0.00685 -0.33363 164.86346 -33.51616 0.47987 30.91332 8.48612 -11.16768 -31.2605 28.02711 -0.83077 -32.56116 -27.25178 17.45618 52.5138 88.20113 15.19809 -0.31013 -39.23348 23.86328 -7.90508 57.77959 -95.42774 8.40224 -0.6875 19.19707 -1.10563 2.73421 0.52383 -8.59729 -38.57808 -21.21278 11.0533 10.81433 20.29009 0.03306 -20.16782 8.60854 5.00144
-0.92948 -0.0062 -0.33605 165.12723 -33.22943 0.95718 30.48218 8.68425 -11.64504 -32.49114 27.0996 -0.83077 -37.99483 -26.78095 16.37448 54.56567 86.29751 16.59716 -1.79722 -40.56231 23.485 -7.84861 57.499 -94.34741 8.26926 -0.43048 18.70221 -1.25665 2.78249 0.54202 -8.90759 -38.54825 -21.22017 10.83633 10.62511 31.17497 -0.10377 -16.12211 -2.48307 -0.94182
